<svg xmlns="http://www.w3.org/2000/svg" xmlns:xlink="http://www.w3.org/1999/xlink" viewBox="0 0 6055.53 2287.12"><defs><style>.a,.d,.e,.f,.g,.h,.i,.k,.l,.m,.n,.o,.p{fill:none;}.b{clip-path:url(#a);}.c,.j{fill:#fff;}.d,.e,.f,.g,.h,.i,.j,.k,.l,.m,.n,.o,.p{stroke:#fff;}.d,.e,.f,.g,.h,.i,.j,.k,.l{stroke-miterlimit:10;}.d{stroke-width:6.02px;}.e{stroke-width:6.02px;}.f,.o{stroke-width:7.3px;}.g{stroke-width:6.02px;}.h{stroke-width:7.3px;}.i{stroke-width:6.02px;}.j{stroke-width:5.47px;}.k{stroke-width:8.66px;}.l{stroke-width:8.04px;}.m,.n,.p{stroke-linecap:square;}.m,.n,.o,.p{stroke-linejoin:round;}.m{stroke-width:3.01px;}.m,.n{stroke-dasharray:10 10;}.n{stroke-width:3.01px;}.p{stroke-width:3.01px;}</style><clipPath id="a" transform="translate(-193.65 -119.37)"><path class="a" d="M1207.5,2378.84v-928h349.89q92.37,0,141.09,8.85Q1766.8,1471.07,1813,1503t74.34,89.45q28.15,57.54,28.16,126.44,0,118.21-75.27,200.09t-271.93,81.86H1330.5v378Zm123-487h239.42q118.75,0,168.67-44.34t49.91-124.83q0-58.26-29.37-99.78t-77.4-54.81q-31-8.24-114.34-8.24H1330.5Zm717.5,487v-928h411.61q124,0,188.61,25t103.17,88.34q38.61,63.33,38.61,140,0,98.8-63.92,166.56t-197.47,86.12q48.73,23.42,74,46.19,53.79,49.37,101.67,123.38L2865,2378.84H2711.52l-122.78-193q-53.82-83.52-88.61-127.8t-62.35-62q-27.54-17.76-56-24.75-20.91-4.42-68.36-4.44H2171v412Zm123-518h263.92q84.2,0,131.52-17.4t71.95-55.71A150.93,150.93,0,0,0,2663,1704.5q0-65.8-47.69-108.23t-150.64-42.43H2171Zm831.93,518v-928h123v928Zm361,0v-928h183.72L3768,2107.7q30.47,91.77,44.45,137.32,15.82-50.62,49.39-148.71L4084,1450.84h164.89v928h-118v-777l-269.76,777H3750.47l-268.55-790v790Zm1060.66,0v-928h669v109h-546v285h511v109h-511v316h568v109Z"/></clipPath></defs><g class="b"><rect class="c" x="997.53" y="1333.12" width="5058" height="954"/></g><path class="c" d="M1089.24,1348.16a7.81,7.81,0,0,0-1.63-.22,3,3,0,0,0-2.49,1.2c-1.09,1.35-1.63,3.74-1.63,8.57,0,7.86.65,17.29.65,25.48,0,5.32-1,8.46-2.28,10.2a6.09,6.09,0,0,1-5.15,2.6,7.35,7.35,0,0,1-2.93-.49l.65-3.14a5.83,5.83,0,0,0,1.9.32,3,3,0,0,0,2.39-1.14c.92-1.13,1.68-3.14,1.68-8.35,0-8.19-.65-17.84-.65-25.81,0-5.48.87-8.51,2.82-10.63a6.31,6.31,0,0,1,4.82-2,7.1,7.1,0,0,1,2.44.38Z" transform="translate(-193.65 -119.37)"/><line class="d" x1="747.32" y1="1373.02" x2="911.81" y2="1373.02"/><path class="e" d="M1071.1,1494.21v-66.85c-14.51,1.24-32.79-5.77-56-25.51-8.74-7.45-16.7-11.06-23.84-12.15v104.51" transform="translate(-193.65 -119.37)"/><path class="f" d="M950.38,1415.4s24.09-48.19,64.75-13.55,66.26,30.11,82.82,10.54" transform="translate(-193.65 -119.37)"/><line class="d" x1="813.23" y1="1276.76" x2="813.23" y2="1370.97"/><line class="d" x1="828.88" y1="1288.12" x2="828.88" y2="1370.97"/><line class="d" x1="844.52" y1="1299.49" x2="844.52" y2="1370.97"/><line class="d" x1="860.17" y1="1306.59" x2="860.17" y2="1370.97"/><path class="c" d="M671.48,632.72V597.23h-5.79v-5.7h5.79v-2c0-5.78,1.27-11.06,4.76-14.38a14.34,14.34,0,0,1,10-3.83,17.44,17.44,0,0,1,6.38,1.19l-1,5.79a11.14,11.14,0,0,0-4.76-.93c-6.38,0-8,5.61-8,11.91v2.21h10v5.7h-10v35.49Z" transform="translate(-193.65 -119.37)"/><path class="c" d="M711.81,573.66c-6.21,8.34-10.72,19.4-10.72,34.81,0,15.14,4.68,26,10.72,34.55h-5.87c-5.36-7.07-11.15-18-11.15-34.55.08-16.77,5.79-27.66,11.15-34.81Z" transform="translate(-193.65 -119.37)"/><path class="c" d="M723.21,591.53l5.87,8.85c1.53,2.3,2.81,4.43,4.17,6.72h.26c1.36-2.46,2.72-4.59,4.08-6.8l5.79-8.77h8.08l-14,19.92,14.47,21.27h-8.51l-6-9.28c-1.62-2.38-3-4.68-4.43-7.14h-.17c-1.36,2.46-2.81,4.68-4.34,7.14l-5.95,9.28h-8.26l14.64-21-14-20.17Z" transform="translate(-193.65 -119.37)"/><path class="c" d="M754.61,643c6-8.43,10.72-19.49,10.72-34.81s-4.59-26.12-10.72-34.55h5.79c5.44,7,11.14,17.87,11.14,34.64s-5.7,27.48-11.14,34.72Z" transform="translate(-193.65 -119.37)"/><line class="g" x1="281.52" y1="732.66" x2="591.23" y2="732.66"/><path class="h" d="M486.34,821.48S574.06,689.15,768.77,679" transform="translate(-193.65 -119.37)"/><polygon class="d" points="629.07 849.95 628.85 793.12 469.67 793.12 469.67 814.86 534.02 915.31 469.67 1004.12 469.67 1031.29 628.85 1031.29 629.07 964.96 601.31 964.96 601.31 1004.12 504.33 1004.12 574.81 908.02 516.13 814.86 601.31 814.86 601.31 849.95 629.07 849.95"/><path class="c" d="M336.37,139.52v-3.36H365.3v3.36Zm0,11v-3.36H365.3v3.36Z" transform="translate(-193.65 -119.37)"/><line class="d" y1="170.72" x2="178.53" y2="170.72"/><path class="f" d="M196,134.46s101.51,50.82,142.37,175" transform="translate(-193.65 -119.37)"/><path class="f" d="M245.16,306.23S282.8,217,354.66,191.82" transform="translate(-193.65 -119.37)"/><circle class="c" cx="105.09" cy="110.86" r="13.89"/><path class="f" d="M1160.31,1830.5c-13.39-63.43-47.13-100.4-104-126.24" transform="translate(-193.65 -119.37)"/><line class="i" x1="878.18" y1="1571.1" x2="980.16" y2="1686.1"/><line class="d" x1="855.88" y1="1695.2" x2="997.53" y2="1695.2"/><line class="j" x1="942.44" y1="1602.12" x2="994.62" y2="1602.12"/><path class="c" d="M1160.15,1728.76v23.41c0,1.72,0,3.68.16,5h-3.17l-.16-3.36h-.08a7.16,7.16,0,0,1-6.6,3.8c-4.68,0-8.28-4-8.28-9.84,0-6.45,4-10.41,8.68-10.41a6.47,6.47,0,0,1,5.84,3h.08v-11.56Zm-3.53,16.92a6.21,6.21,0,0,0-.16-1.48,5.18,5.18,0,0,0-5.08-4.08c-3.64,0-5.8,3.2-5.8,7.49,0,3.92,1.92,7.16,5.72,7.16a5.29,5.29,0,0,0,5.16-4.2,6.11,6.11,0,0,0,.16-1.52Z" transform="translate(-193.65 -119.37)"/><path class="c" d="M1167.63,1737.8l2.77,4.16c.72,1.08,1.32,2.08,2,3.16h.12c.64-1.16,1.28-2.16,1.92-3.2l2.72-4.12h3.8l-6.6,9.37,6.8,10h-4l-2.84-4.36c-.76-1.12-1.4-2.2-2.08-3.36h-.08c-.64,1.16-1.32,2.2-2,3.36l-2.81,4.36h-3.88l6.89-9.88-6.57-9.49Z" transform="translate(-193.65 -119.37)"/><path class="c" d="M1170.63,1685v23.41c0,1.73,0,3.69.16,5h-3.17l-.16-3.36h-.08a7.16,7.16,0,0,1-6.6,3.8c-4.68,0-8.28-4-8.28-9.85,0-6.44,4-10.4,8.68-10.4a6.47,6.47,0,0,1,5.84,3h.08V1685Zm-3.53,16.93a6.21,6.21,0,0,0-.16-1.48,5.18,5.18,0,0,0-5.08-4.08c-3.64,0-5.8,3.2-5.8,7.48,0,3.92,1.92,7.17,5.72,7.17a5.3,5.3,0,0,0,5.16-4.21,6.11,6.11,0,0,0,.16-1.52Z" transform="translate(-193.65 -119.37)"/><path class="c" d="M1231.08,1291.86l2.34,3.53c.61.91,1.12,1.76,1.66,2.68h.1c.55-1,1.09-1.83,1.63-2.72l2.31-3.49h3.22l-5.6,7.94,5.77,8.48h-3.39l-2.41-3.69c-.64-1-1.19-1.87-1.77-2.86h-.06c-.55,1-1.12,1.87-1.73,2.86l-2.38,3.69h-3.29l5.84-8.38-5.57-8Z" transform="translate(-193.65 -119.37)"/><path class="c" d="M1243.81,1297v-1.07l1.36-1.33c3.28-3.12,4.77-4.78,4.79-6.72a2.29,2.29,0,0,0-2.55-2.51,4.33,4.33,0,0,0-2.73,1.09l-.56-1.23a5.66,5.66,0,0,1,3.64-1.31,3.62,3.62,0,0,1,3.94,3.74c0,2.37-1.72,4.29-4.43,6.9l-1,1v0H1252V1297Z" transform="translate(-193.65 -119.37)"/><line class="d" x1="946.79" y1="1270.12" x2="1060.53" y2="1270.12"/><path class="k" d="M1147.68,1312.87c10.49,52.43,15.62,75.39,34.32,75.39" transform="translate(-193.65 -119.37)"/><path class="k" d="M1215.9,1312.87c-10.49,52.43-15.62,75.39-34.32,75.39" transform="translate(-193.65 -119.37)"/><polygon class="c" points="842.85 1085.42 845.33 1084.68 844.24 1081.06 841.77 1081.82 842.85 1085.42"/><rect class="c" x="1031.36" y="1185.16" width="2.58" height="5.07" transform="translate(-500.27 241.67) rotate(-17.31)"/><rect class="c" x="1033.57" y="1192.3" width="2.58" height="5.08" transform="translate(-496.77 233.81) rotate(-16.93)"/><polygon class="c" points="831.61 1049.87 834.05 1049.01 832.34 1044.22 829.91 1045.1 831.61 1049.87"/><polygon class="c" points="851.32 1114.11 853.79 1113.34 852.29 1108.51 849.82 1109.26 851.32 1114.11"/><path class="c" d="M1093.49,1295.06l1.27.26.53-2.52-1.27-.27c-.76-.16-1.55-.34-2.36-.55l-1.25-.33-.65,2.5,1.25.32C1091.86,1294.7,1092.69,1294.89,1093.49,1295.06Z" transform="translate(-193.65 -119.37)"/><path class="c" d="M1066.23,1277.33c.54.67,1.08,1.33,1.61,2l.84,1,2-1.68-.83-1c-.52-.6-1-1.23-1.56-1.88l-.8-1-2,1.61Z" transform="translate(-193.65 -119.37)"/><path class="c" d="M1100.87,1296.37l1.27.25.5-2.53-1.27-.26c-.77-.15-1.61-.29-2.5-.43l-1.27-.21-.42,2.54,1.28.21C1099.31,1296.08,1100.12,1296.22,1100.87,1296.37Z" transform="translate(-193.65 -119.37)"/><path class="c" d="M1046.13,1237c.27.8.54,1.6.82,2.37l.42,1.22,2.44-.85-.43-1.22-.8-2.34-.41-1.23-2.45.83Z" transform="translate(-193.65 -119.37)"/><path class="c" d="M1052.4,1253.4l.52,1.18,2.37-1-.52-1.19c-.33-.74-.65-1.5-1-2.27l-.51-1.19-2.38,1,.51,1.19C1051.74,1251.87,1052.07,1252.64,1052.4,1253.4Z" transform="translate(-193.65 -119.37)"/><path class="c" d="M1054.49,1258c.37.77.73,1.52,1.1,2.26l.58,1.16,2.31-1.16-.58-1.15q-.54-1.08-1.08-2.22l-.55-1.16-2.34,1.11Z" transform="translate(-193.65 -119.37)"/><path class="c" d="M951.32,1279.28c.53-.62,1.07-1.28,1.61-2l.8-1-2-1.61-.8,1c-.52.65-1,1.28-1.55,1.88l-.84,1,2,1.68Z" transform="translate(-193.65 -119.37)"/><path class="c" d="M963.57,1260.22c.37-.74.73-1.49,1.1-2.26l.56-1.16-2.33-1.11-.56,1.16q-.54,1.14-1.08,2.22l-.58,1.15,2.31,1.16Z" transform="translate(-193.65 -119.37)"/><path class="c" d="M966.76,1253.4c.33-.76.66-1.53,1-2.31l.51-1.19-2.38-1-.51,1.19c-.32.77-.64,1.53-1,2.27l-.52,1.19,2.37,1Z" transform="translate(-193.65 -119.37)"/><path class="c" d="M918.29,1296.37c.75-.15,1.56-.29,2.41-.43l1.28-.21-.42-2.54-1.27.21c-.89.14-1.73.28-2.5.43l-1.27.26.5,2.53Z" transform="translate(-193.65 -119.37)"/><path class="c" d="M972.21,1239.38c.28-.77.55-1.57.82-2.37l.41-1.22L971,1235l-.41,1.23-.8,2.34-.43,1.22,2.44.85Z" transform="translate(-193.65 -119.37)"/><path class="c" d="M925.67,1295.06c.8-.17,1.63-.36,2.48-.59l1.25-.32-.65-2.5-1.25.33c-.81.21-1.6.39-2.36.55l-1.27.27.54,2.52Z" transform="translate(-193.65 -119.37)"/><polygon class="c" points="801.95 1045.1 799.52 1044.22 797.81 1049.01 800.25 1049.87 801.95 1045.1"/><rect class="c" x="983.97" y="1186.41" width="5.07" height="2.58" transform="translate(-635.35 1654.9) rotate(-72.62)"/><path class="c" d="M1002.36,1148.84l.68-1.1a22,22,0,0,1,1.33-1.93l.8-1-2-1.6-.79,1a25.5,25.5,0,0,0-1.49,2.15l-.69,1.1Z" transform="translate(-193.65 -119.37)"/><polygon class="c" points="790.08 1081.82 787.62 1081.06 786.53 1084.68 789 1085.42 790.08 1081.82"/><rect class="c" x="981.77" y="1193.55" width="5.08" height="2.58" transform="translate(-638.52 1670.41) rotate(-73.12)"/><polygon class="c" points="782.04 1109.26 779.57 1108.51 778.07 1113.34 780.53 1114.11 782.04 1109.26"/><path class="c" d="M1086,1302.64v-9.8l.11.05,1.21.48.94-2.41-1.2-.47c-.35-.14-.71-.31-1.06-.46v-6.74H1075.4l-.52-.46c-.58-.53-1.17-1.08-1.76-1.66l-.92-.91-1.81,1.84.91.91.31.28h-7.12V1274l1.59-1.1-.74-1.06c-.28-.4-.56-.84-.85-1.26v-24.27h-12.25l-.29-.75c-.3-.76-.59-1.54-.89-2.32l-.45-1.21-2.42.91.46,1.21c.27.73.54,1.45.82,2.16h-6.36v-20l2.16-.62-1.41-4.88-.75.22v-2.5l.08,0-.08-.28v-41.9h-15.28l2.27-.75-1.62-4.82-2.44.83,1.59,4.74h-6.1l0-17.19c.26.65.52,1.31.79,2l.46,1.2,2.41-.92-.46-1.21c-.31-.81-.61-1.59-.91-2.34l-.48-1.19-1.81.72v-2.59l.87-.39-.53-1.18c-.12-.26-.23-.49-.34-.74l0-12.76h-24l0,13.31-.09.19-.53,1.18.62.28v2.61l-1.58-.63-.48,1.19c-.3.75-.6,1.53-.91,2.34l-.46,1.21,2.41.92.46-1.2c.19-.51.38-1,.56-1.45l0,16.63h-6l1.59-4.74-2.44-.83-1.62,4.82,2.27.75H976.05v41.9l-.08.28.08,0v2.5l-.75-.22-1.41,4.88,2.16.62v20h-6.36c.28-.71.55-1.43.82-2.16l.46-1.21-2.42-.91-.45,1.21c-.3.78-.59,1.56-.89,2.32l-.29.75H954.67v24.27c-.29.42-.57.86-.85,1.26l-.74,1.06,1.59,1.1v9.34h-7.12l.31-.28.91-.91-1.81-1.84-.92.91c-.59.58-1.18,1.13-1.76,1.66l-.52.46H933.15V1290c-.35.15-.71.32-1.06.46l-1.2.47.94,2.41,1.21-.48.11-.05v9.8H910.56v5.13h198v-5.13Zm-9-16.77-1,1.34,1.05.75c.71.51,1.42,1,2.12,1.44l1.1.69,1.38-2.18-1.09-.7c-.66-.41-1.32-.86-2-1.34h4.77v3.68l-.84,1.77.84.4v10.92h-18.87v-16.77Zm-15.14-37v17.61l-.51-.88c-.4-.69-.81-1.41-1.21-2.14l-.62-1.13-2.26,1.25.62,1.13c.41.75.83,1.48,1.24,2.19l.65,1.12,2.09-1.22v2.79l-.8.53.7,1.08.1.15v31.32h-18.8v-53.8Zm-33.43-70,1.47,4.58,2.46-.79-1.22-3.79h9.34v30.49l-.87-2.94-2.47.73,1.43,4.87,1.91-.56v2.5l-1.24.36,1.24,4.24v27.76l-.07,56.38h-18.8V1178.81Zm-22.61-36.58.53,1.33,1.2-.48a5.21,5.21,0,0,1,1.95-.34h.06a5.21,5.21,0,0,1,1.95.34l1.2.48.53-1.33h5.56v5l-.54-.87a23.36,23.36,0,0,0-1.49-2.15l-.79-1-2,1.6.8,1a22,22,0,0,1,1.33,1.93l.69,1.1,2.05-1.28v2.78l-1,.48.56,1.17.44.93.09,149.72h-18.87V1176.23h0l-.06-22.69c.24-.53.48-1.07.72-1.55l.56-1.17-1.29-.62,0-8ZM988,1178.81l-1.22,3.79,2.46.79,1.47-4.58h6.82v123.83H978.7v-56.38l0-27.9,1.2-4.1-1.2-.35v-2.5l1.88.55,1.44-4.87-2.48-.73-.84,2.84,0-30.39Zm-11.92,70v53.8h-18.8v-31.32l.1-.15.7-1.08-.8-.53v-2.79l2.09,1.22.65-1.12c.41-.71.83-1.44,1.24-2.19l.62-1.13-2.26-1.25-.62,1.13c-.4.73-.81,1.45-1.21,2.14l-.51.88v-17.61Zm-40.32,42.88.84-.4-.84-1.77v-3.68h4.77c-.67.48-1.33.93-2,1.34l-1.09.7,1.38,2.18,1.1-.69c.7-.45,1.41-.93,2.12-1.44l1.05-.75-1-1.34H954.6v16.77H935.73Z" transform="translate(-193.65 -119.37)"/><path class="l" d="M1129.45,965.33s24.52-43.12,30-51.57,29.59-39.31,57.49.85,55.38,97.64,60.87,103.56,29.59,41.85,57.49,1.27c11.27-16.39,22.77-35.4,32.83-52.8" transform="translate(-193.65 -119.37)"/><path class="c" d="M1215.1,818.66a20.14,20.14,0,0,0,10.15,3.07c5.6,0,8.23-2.81,8.23-6.31,0-3.67-2.19-5.69-7.88-7.79-7.61-2.71-11.2-6.91-11.2-12,0-6.82,5.51-12.43,14.61-12.43a21.15,21.15,0,0,1,10.42,2.63l-1.93,5.6a16.46,16.46,0,0,0-8.66-2.45c-4.55,0-7.09,2.63-7.09,5.78,0,3.5,2.54,5.07,8,7.18,7.35,2.8,11.12,6.47,11.12,12.77,0,7.44-5.78,12.69-15.84,12.69a24.2,24.2,0,0,1-11.91-2.88Z" transform="translate(-193.65 -119.37)"/><path class="c" d="M1259.38,772.27c.09,2.63-1.83,4.73-4.9,4.73a4.58,4.58,0,0,1-4.64-4.73,4.7,4.7,0,0,1,4.82-4.81A4.56,4.56,0,0,1,1259.38,772.27Zm-8.57,54.27V784.18h7.7v42.36Z" transform="translate(-193.65 -119.37)"/><path class="c" d="M1271.28,795.64c0-4.37-.08-8-.35-11.46h6.83l.44,7h.17a15.6,15.6,0,0,1,14-8c5.86,0,15,3.51,15,18v25.3h-7.7V802.12c0-6.83-2.54-12.52-9.8-12.52a10.94,10.94,0,0,0-10.33,7.88,11.09,11.09,0,0,0-.52,3.59v25.47h-7.71Z" transform="translate(-193.65 -119.37)"/><path class="c" d="M1342,784.18l6,9.1c1.57,2.36,2.89,4.55,4.29,6.91h.26c1.4-2.53,2.8-4.72,4.2-7l6-9h8.32l-14.44,20.48,14.88,21.88h-8.76l-6.21-9.54c-1.66-2.45-3.07-4.81-4.55-7.35h-.18c-1.4,2.54-2.89,4.81-4.46,7.35l-6.13,9.54h-8.49l15.06-21.62-14.36-20.74Z" transform="translate(-193.65 -119.37)"/><line class="d" x1="904.48" y1="847.11" x2="1197.88" y2="847.11"/><path class="c" d="M1072.56,927.71c.14,8.25,5.4,11.65,11.5,11.65a22.06,22.06,0,0,0,9.29-1.74l1,4.37a27.17,27.17,0,0,1-11.16,2.08c-10.33,0-16.49-6.79-16.49-16.91s6-18.09,15.73-18.09c11,0,13.86,9.63,13.86,15.8a22.65,22.65,0,0,1-.21,2.84Zm17.88-4.36c.07-3.88-1.59-9.91-8.46-9.91-6.16,0-8.87,5.68-9.35,9.91Z" transform="translate(-193.65 -119.37)"/><path class="c" d="M1103.43,900.74l2.79,4.2c.73,1.09,1.34,2.1,2,3.19h.12c.65-1.17,1.3-2.18,1.94-3.23l2.75-4.16h3.84l-6.67,9.45,6.87,10.1h-4l-2.87-4.4c-.77-1.13-1.41-2.22-2.1-3.39H1108c-.65,1.17-1.33,2.22-2.06,3.39l-2.83,4.4h-3.92l6.95-10-6.63-9.57Z" transform="translate(-193.65 -119.37)"/><line class="d" x1="694.65" y1="989.91" x2="927.01" y2="989.91"/><path class="f" d="M1020.43,902.08c-11.76,52.89-34.87,143.5-83,186.43" transform="translate(-193.65 -119.37)"/><polygon class="c" points="990.88 578.77 979.82 578.77 979.82 581.34 987.78 581.34 986.46 588.7 988.99 589.17 990.88 578.77"/><polyline class="f" points="851.22 623.43 829.2 739.11 913.7 739.12"/><polygon class="c" points="834.75 630.6 859.68 578.98 863.91 636.15 834.75 630.6"/><polygon class="c" points="903.58 753.96 958.95 739.13 903.58 724.28 903.58 753.96"/><line class="f" x1="828.91" y1="738.89" x2="957.18" y2="611.3"/><polygon class="c" points="960.47 628.96 989.27 579.4 939.54 607.92 960.47 628.96"/><line class="m" x1="973.87" y1="580.06" x2="863.91" y2="580.06"/><line class="n" x1="960.52" y1="735.09" x2="986.54" y2="594.92"/><path class="m" d="M1220.72,1198.1c1.54-13.25,5.49-25,10.53-36.44" transform="translate(-193.65 -119.37)"/><path class="m" d="M1203.15,1198.33c3.73-32.58,22-56.29,35.38-87.42" transform="translate(-193.65 -119.37)"/><path class="m" d="M1187.75,1197.12c5.68-48.61,43.79-77.51,49.17-141" transform="translate(-193.65 -119.37)"/><path class="m" d="M1170.89,1198.09c5.59-48.94,44.09-77.86,49.25-142" transform="translate(-193.65 -119.37)"/><path class="m" d="M1152.66,1197.57c5.6-48.79,43.9-77.69,49.21-141.48" transform="translate(-193.65 -119.37)"/><path class="m" d="M1117.64,1197c5.74-48.5,43.77-77.41,49.14-140.87" transform="translate(-193.65 -119.37)"/><path class="m" d="M1101.48,1197.19c5.65-48.64,43.79-77.54,49.17-141.1" transform="translate(-193.65 -119.37)"/><path class="m" d="M1097.56,1155.61c13.35-28.78,32.78-56,36.83-99.52" transform="translate(-193.65 -119.37)"/><path class="m" d="M1100.19,1119.84c8.57-18,16.07-38,18.21-63.75" transform="translate(-193.65 -119.37)"/><path class="h" d="M1134.7,1198.46c5.7-48.65,43.87-77.27,49.91-140.33" transform="translate(-193.65 -119.37)"/><line class="d" x1="666.88" y1="604.39" x2="846.78" y2="604.39"/><path class="f" d="M873.7,723.06s1.62-86.89,17.6-86.89c14.78,0,18.93,73.74,19.76,86.79.82,12.89,2.91,69.75,17.43,69.75,15,0,18.33-55.89,19.92-69.62,1.47-12.69,4.07-49.84,17.59-49.84,12,0,17.33,37.48,19.67,49.84,2.25,11.93,5.39,36.85,17.41,36.85,11.44,0,16.42-24.05,20-37,3.32-12.18,8.16-20.4,17.91-20.4" transform="translate(-193.65 -119.37)"/><path class="o" d="M1147.3,509.19c53.24,85.24,80.86,18.22,99.85-14.33,19.6-33.61,34.3-13.92,45.75,6.48,10.47,18.63,26.51,64.1,26.51,64.1-20.28,52.51-49.83,91.87-81.23,91.87s-64.42-57.13-63.86-55.45c0,0-15.12-64.43-22.4-82.35-5.26-12.94-9.42-22.23-17.37-21.85-11.76.56-16.61,25.06-21.85,43.7,0,0,24.09,46.49,56.58,44.81" transform="translate(-193.65 -119.37)"/><path class="p" d="M1192.77,550.32s33-17.46,58.43,103.63" transform="translate(-193.65 -119.37)"/><path class="f" d="M1187.2,545.85" transform="translate(-193.65 -119.37)"/><path class="p" d="M1213.54,646.67c-6.21-29.32-24.61-94.72-39.62-102.65,0,0,51.38,47.19,98.44-64.84" transform="translate(-193.65 -119.37)"/><path class="f" d="M1187.25,545.37" transform="translate(-193.65 -119.37)"/><path class="p" d="M1125.59,506.06s8.62,22.66,33.83,41.71c0,0-8.06,10.39-12.55,31.12" transform="translate(-193.65 -119.37)"/><path class="p" d="M1295.32,505.5c-7.84,20.17-38,71.09-65.54,79-31.66,9.08-58.94-27.24-72.37-48.78" transform="translate(-193.65 -119.37)"/><path class="p" d="M1221.38,534.63s29.69-43.13,65,89.63" transform="translate(-193.65 -119.37)"/><path class="c" d="M628.08,1030.63l65.21-65.19a1,1,0,0,0,.29-.79c0-1-.18-85-.49-85.32a1,1,0,0,0-.71-.3h0l-40.25.11c0-4-.09-18.73-.09-18.87,0-1-.48-1-2.77-1-1.13,0-35.72,0-38.55,0,0-4.13,0-19.65,0-19.73a1,1,0,0,0-1-1H565a1,1,0,0,0-.71.29l-22.13,22.1a1,1,0,0,0-.29.7l-.06,20.23c-8,8-19.69,19.81-20.49,20.55a1,1,0,0,0-.39.78l0,18.66c-1.2,1-22.27,22.22-22.36,22.48a.89.89,0,0,0-.05.32c0,28.94.09,83.83.05,85.42a1.18,1.18,0,0,0,0,.26,1,1,0,0,0,1,.81M671.86,903.31l15.66-15v74.27L671.86,978.3Zm-.28-6.65V885.14h11.65l-8.52,8.53Zm-148,30.67h17.26V943H507.92Zm122.56-58.56v11.41H634.75Zm-15.94,8.88V865.23h12.39ZM606,881.12h-34.3l15.66-15.7h34.31ZM625.2,869v12.7l-15.65,15.69v-12.7Zm-38,70.54V925.84l17.35-17.38v13.75Zm0,8.53h36.36v77.1H587.21Zm-37.87-25.7L565,906.63h34.31l-15.67,15.7Zm32.86,5v97.8H545.84v-97.8Zm-14-25.7V886.12h36.36v15.51Zm24.21-41.21,12.32-12.35v12.35Zm9.4-16-16.27,15.82H551.22L567,844.41Zm-21.32,20.82-15.86,15.89H547.76V865.23Zm-17.29,20.89v15.64l-.18.06H530.27l15.66-15.7Zm-36.37,20.7h30.93l-15.47,15.51H526.82ZM504.48,948h36.35v77.1H504.48Zm86.26-5,15.66-15.7h34.31L625,943Zm37.84,3.53,15.65-15.69v75l-15.65,15.69Zm-19-24.23V905.88h36.35v16.45Zm3.52-21.45,15.67-15.7h34.31l-15.67,15.7Zm37.85,3.53,15.65-15.69V983.5l-15.65,15.69Z" transform="translate(-193.65 -119.37)"/><path class="c" d="M592,152.48c-4.53,2.11-7.24,5.88-6.06,8.42s5.82,2.88,10.35.77,7.25-5.89,6.06-8.43S596.55,150.36,592,152.48Z" transform="translate(-193.65 -119.37)"/><path class="c" d="M617.17,220.15a6.87,6.87,0,1,0,3.49-9.07A6.87,6.87,0,0,0,617.17,220.15Z" transform="translate(-193.65 -119.37)"/><path class="c" d="M587.89,198.45a6.87,6.87,0,1,0-3.49,9.07A6.86,6.86,0,0,0,587.89,198.45Z" transform="translate(-193.65 -119.37)"/><path class="c" d="M591.69,223.94a6.87,6.87,0,1,0,9.06,3.49A6.86,6.86,0,0,0,591.69,223.94Z" transform="translate(-193.65 -119.37)"/><path class="c" d="M616.87,185.6a6.87,6.87,0,1,0-3.49,9.06A6.87,6.87,0,0,0,616.87,185.6Z" transform="translate(-193.65 -119.37)"/><path class="c" d="M654.42,229l13.94-39.37-31.17-70.25L568.05,150l-1.1.49L550.5,189.34l-.18.08,32.41,72.12,71.72-32.25-.16-.35Zm-18.27-82.32c1.87-.83,5.24,2.67,7.53,7.82s2.62,10,.74,10.83-5.24-2.67-7.52-7.82S634.28,147.5,636.15,146.67Zm-64.51,8.47,58.49-25.95-11.54,29.94-59.91,26.58Zm14.16,98.32-27.39-60.94,61-27.07,27,60.76Zm65.38-52c-1.87.83-5.24-2.67-7.53-7.82s-2.62-10-.74-10.83,5.24,2.67,7.52,7.82S653.05,200.67,651.18,201.5Z" transform="translate(-193.65 -119.37)"/><path class="c" d="M731.37,240.74c4.75,1.62,9.28.95,10.12-1.5s-2.33-5.75-7.08-7.37-9.28-1-10.12,1.49S726.62,239.12,731.37,240.74Z" transform="translate(-193.65 -119.37)"/><path class="c" d="M741.52,302.92a6.85,6.85,0,1,0,4.27,8.7A6.85,6.85,0,0,0,741.52,302.92Z" transform="translate(-193.65 -119.37)"/><path class="c" d="M726.1,271.48a6.85,6.85,0,1,0-8.69,4.27A6.85,6.85,0,0,0,726.1,271.48Z" transform="translate(-193.65 -119.37)"/><path class="c" d="M751.75,273a6.85,6.85,0,1,0,4.27,8.7A6.86,6.86,0,0,0,751.75,273Z" transform="translate(-193.65 -119.37)"/><path class="c" d="M736,291.55a6.85,6.85,0,1,0-8.7,4.27A6.86,6.86,0,0,0,736,291.55Z" transform="translate(-193.65 -119.37)"/><path class="c" d="M711.61,292.7a6.85,6.85,0,1,0,4.27,8.69A6.85,6.85,0,0,0,711.61,292.7Z" transform="translate(-193.65 -119.37)"/><path class="c" d="M759.65,227.83,687.14,203l-24.79,72.52L679.64,314l.27-.12,74,25.31,25.65-74.41Zm-4.24,5,15.77,29.28-60.92-20.83-14.42-28.82Zm-72.25,1.08c.74-3.66,3.4-6.21,5.93-5.7s4,3.9,3.24,7.56-3.4,6.21-5.93,5.69S682.41,237.57,683.16,233.92Zm3.49,53.48c-.74,3.66-3.4,6.21-5.93,5.69s-4-3.9-3.24-7.55,3.4-6.21,5.93-5.7S687.4,283.74,686.65,287.4Zm-2.93-20.58c-2.54-.52-4-3.9-3.24-7.56s3.4-6.21,5.93-5.7,4,3.9,3.24,7.56S686.25,267.33,683.72,266.82ZM750.1,331.4,687.4,310l21.44-62.7,62.69,21.43Z" transform="translate(-193.65 -119.37)"/><ellipse class="d" cx="923.24" cy="1469.67" rx="31.23" ry="39.73"/><ellipse class="d" cx="897.07" cy="1469.67" rx="31.23" ry="39.73"/><ellipse class="c" cx="910.16" cy="1469.67" rx="18.14" ry="36.08"/><path class="c" d="M769.5,456.34a8.78,8.78,0,0,0-6.43,2.22,8.52,8.52,0,0,0-2.25,6.34,8.34,8.34,0,0,0,2.25,6.17,8.67,8.67,0,0,0,6.43,2.26,8.49,8.49,0,0,0,6.31-2.26,8.34,8.34,0,0,0,2.25-6.17,7.78,7.78,0,0,0-8.56-8.56Z" transform="translate(-193.65 -119.37)"/><rect class="c" x="568.08" y="364.67" width="15.35" height="72.26"/><rect class="c" x="658.02" y="409" width="56.63" height="10.47"/><polygon class="c" points="658.02 394.68 714.65 394.68 714.65 384.15 659.34 384.15 658.02 394.68"/><rect class="c" x="750.99" y="397.45" width="35.51" height="11.76"/><path class="c" d="M796.22,492.11v-5.2l5.34-4.93c10.62-9.85,15.62-15.26,15.68-21.23,0-4-2.15-7.56-8-7.56-4,0-7.36,2-9.65,3.74l-2.5-6a22.31,22.31,0,0,1,13.88-4.65c10,0,14.85,6.31,14.85,13.67,0,7.91-5.69,14.29-13.53,21.58l-4,3.4V485h18.53v7.08Z" transform="translate(-193.65 -119.37)"/><path class="c" d="M1010.06,463.74l-27.23,21.4,7.48,9.44q12.09-9.82,14.21-11.65t3.58-3.36q-.51,6.27-.51,17V556.3h14.88V463.74Z" transform="translate(-193.65 -119.37)"/><path class="c" d="M447.85,562.89c-1.32-38.11-47.81-90.15-75.59-121.25l-.64-.72,6-5.93L504.06,561.35l6.38-6.38L384.08,428.66l5.68-5.6.65.57c43.2,38.52,84,74.94,123.76,74.94.74,0,1.48,0,2.22,0,38-1.32,90.72-48.5,122.25-76.69q3.83-3.43,7.15-6.38l1.7-1.51-3-3.39-1.7,1.5-7.17,6.39c-29,26-83.06,74.28-119.37,75.54-.69,0-1.38,0-2.07,0-38,0-78.2-35.87-120.74-73.79l-.42-.37,8.24-8.12c41.39,32.74,73.67,54.72,110.75,54.72a97,97,0,0,0,15.74-1.3c29.39-4.79,64.44-24.52,107.14-60.31l1.74-1.46-2.92-3.48L632,401.38c-42.05,35.26-76.38,54.65-105,59.31-42.11,6.86-76.55-15.83-122.49-52.15l4.25-4.19-18.1-4.85,4,14.87-15.05-4,3.75,14-5-1.33-.27-.27-.15.16-8.77-2.35L373,434.65l-14.29-3.84,4,15-15.19-4.08,4.85,18.1,4.83-4.75c31.08,38.19,48.38,70,52.8,97.16,7.17,44-18.28,79.79-57.93,129.46l-1.42,1.77,3.55,2.84,1.42-1.78C396,634,422,597.34,414.5,551.54c-5.93-36.35-32.44-73.26-54-99.64l7.91-7.79.49.56c27.37,30.63,73.18,81.91,74.44,118.37,1.33,38.14-34.73,78.53-72.89,121.28l-7.4,8.29-1.51,1.7,3.4,3,1.5-1.7,7.39-8.29C412.6,643.89,449.24,602.85,447.85,562.89Z" transform="translate(-193.65 -119.37)"/><polygon class="c" points="335.31 408.82 327.25 439.25 357.64 431.02 349.68 423.1 466.05 306.08 459.65 299.72 343.28 416.74 335.31 408.82"/><path class="c" d="M665.33,684.41l15.2,4.07-4.85-18.1-4.59,4.52c-30.82-37.86-48-69.72-52.5-97.21-7.17-44,18.77-80.45,59.16-131.05l1.42-1.77L675.62,442l-1.41,1.78c-41.16,51.55-67.58,88.77-60.1,134.61,4.62,28.37,22.22,61,53.73,99.68l-7.77,7.64c-.18-.2-.35-.4-.54-.6-27.29-30.57-73-81.72-74.24-118.22C584,528.51,620.88,487.12,660,443.3q3.31-3.72,6.62-7.43l1.51-1.7-3.39-3-1.51,1.69-6.61,7.43c-39.72,44.52-77.22,86.57-75.83,126.79,1.32,38.15,47.69,90.07,75.4,121.09l.68.77-6.3,6.21L524.36,568.89,518,575.27,644.1,701.47,638.49,707l-2.09-1.87c-43.26-38.61-84.09-75-124.19-73.69-38.15,1.32-90.34,47.93-121.52,75.78L384,713.14l-1.7,1.5,3,3.4,1.7-1.51c2.07-1.83,4.3-3.82,6.67-5.94,30.72-27.43,82.14-73.36,118.64-74.62,38.31-1.3,78.46,34.55,121,72.54l1.87,1.67-8,7.93c-47-37.21-82.19-60.51-126.34-53.32-39,6.36-79.07,36.88-105.8,59.28l-1.74,1.46,2.92,3.48,1.74-1.45c26.32-22.07,65.7-52.11,103.61-58.29,42.2-6.89,76.51,15.8,122.34,52.05l-4.65,4.58,18.1,4.85-4-14.88,15,4-3.74-14,14.15,3.79-3.79-14.12,14.3,3.83Z" transform="translate(-193.65 -119.37)"/><polygon class="c" points="305.66 483.14 313.78 452.72 283.37 460.9 291.32 468.84 177.76 582.63 184.15 589.01 297.71 475.21 305.66 483.14"/><path class="c" d="M1132.1,352.45c8-13.51,9.71-26.1,4.87-35.84l12.3-7.1,2.35,4.09,17.09-17.1-23.34,6.26,2.36,4.09-12.3,7.1c-6.32-9.53-19-14.37-35.9-13.66a105.92,105.92,0,0,0-30,6.11V237.5h-6.11v71.2a148.31,148.31,0,0,0-17.36,8.38l-25.59-44.32,4.09-2.36-17.09-17.09,6.25,23.35,4.09-2.36,25.59,44.32c-16,9.46-29.49,21.32-38.5,33.83H948.5v6.12h52.43c-8,13.51-9.71,26.1-4.87,35.84L962.21,414l1.54,2.66,33.85-19.54c5.9,8.91,17.35,13.72,32.65,13.72,1.07,0,2.15,0,3.25-.07a105.92,105.92,0,0,0,30-6.11v68.91h6.11V402.32a148.25,148.25,0,0,0,17.36-8.38l38,65.88,2.66-1.54-38-65.87c16-9.47,29.49-21.32,38.5-33.84h56.44v-6.12Zm-85.61-28.54L1063,352.45H1012.6C1021,341.94,1032.75,332,1046.49,323.91Zm-45.13,67.44c-3.87-8.21-1.78-19.35,6-31.58.25-.4.53-.8.79-1.2h50Zm62.1,6.78a101.48,101.48,0,0,1-30.22,6.49c-14.48.6-25.16-3.15-30.34-10.6l60.56-35Zm0-51-14.3-24.77a144.54,144.54,0,0,1,14.3-7.06Zm6.11-34.25a101.42,101.42,0,0,1,30.21-6.49c1,0,2-.06,3-.06,13,0,22.52,3.73,27.33,10.66l-60.56,35Zm0,82.82V363.88l14.3,24.77A145.64,145.64,0,0,1,1069.57,395.71Zm17-8.6-16.48-28.54h50.37C1112,369.08,1100.28,379,1086.53,387.11Zm39.15-35.86-.8,1.2h-50l56.78-32.78C1135.54,327.89,1133.45,339,1125.68,351.25Z" transform="translate(-193.65 -119.37)"/><path class="c" d="M901.13,827.9H862.72V668.2l1.22-1.25-2.19-2.16-1.37,1.39H703V628.9h-6.11v199H680.53V834H695l-.1.11,2,2V849.5H703V834h198.1ZM857.67,669.26l2,1.94V827.9H705.35l2.24-2.28-2.19-2.16-2.37,2.4V669.26Z" transform="translate(-193.65 -119.37)"/><rect class="c" x="726.36" y="799.77" width="6.05" height="3.08" transform="translate(-546.98 639.22) rotate(-45.43)"/><rect class="c" x="888.97" y="634.75" width="6.05" height="3.08" transform="translate(-380.97 705.61) rotate(-45.42)"/><rect class="c" x="795.16" y="729.96" width="6.05" height="3.08" transform="translate(-476.74 667.17) rotate(-45.42)"/><rect class="c" x="738.87" y="787.08" width="6.05" height="3.08" transform="translate(-534.2 644.1) rotate(-45.42)"/><rect class="c" x="788.9" y="736.3" width="6.05" height="3.08" transform="translate(-483.13 664.6) rotate(-45.42)"/><rect class="c" x="776.4" y="749" width="6.05" height="3.08" transform="translate(-495.89 659.48) rotate(-45.42)"/><rect class="c" x="782.65" y="742.65" width="6.05" height="3.08" transform="translate(-489.51 662.04) rotate(-45.42)"/><rect class="c" x="732.62" y="793.42" width="6.05" height="3.08" transform="translate(-540.59 641.79) rotate(-45.43)"/><rect class="c" x="870.21" y="653.79" width="6.05" height="3.08" transform="translate(-400.09 698.16) rotate(-45.43)"/><rect class="c" x="720.11" y="806.12" width="6.05" height="3.08" transform="translate(-553.36 636.41) rotate(-45.42)"/><rect class="c" x="882.72" y="641.1" width="6.05" height="3.08" transform="translate(-387.31 703.29) rotate(-45.43)"/><rect class="c" x="876.46" y="647.45" width="6.05" height="3.08" transform="translate(-393.7 700.73) rotate(-45.43)"/><rect class="c" x="688.84" y="837.85" width="6.05" height="3.08" transform="translate(-585.3 623.85) rotate(-45.43)"/><rect class="c" x="863.95" y="660.14" width="6.05" height="3.08" transform="translate(-406.51 695.36) rotate(-45.42)"/><rect class="c" x="682.58" y="844.2" width="6.05" height="3.08" transform="translate(-591.66 621.04) rotate(-45.42)"/><rect class="c" x="745.13" y="780.73" width="6.05" height="3.08" transform="translate(-527.82 646.66) rotate(-45.42)"/><rect class="c" x="763.89" y="761.69" width="6.05" height="3.08" transform="translate(-508.66 654.6) rotate(-45.43)"/><rect class="c" x="770.14" y="755.34" width="6.05" height="3.08" transform="translate(-502.27 657.16) rotate(-45.43)"/><rect class="c" x="801.41" y="723.61" width="6.05" height="3.08" transform="translate(-470.34 669.98) rotate(-45.43)"/><rect class="c" x="757.63" y="768.04" width="6.05" height="3.08" transform="translate(-515.05 651.79) rotate(-45.42)"/><rect class="c" x="707.6" y="818.81" width="6.05" height="3.08" transform="translate(-566.13 631.29) rotate(-45.42)"/><rect class="c" x="820.17" y="704.57" width="6.05" height="3.08" transform="translate(-451.2 677.42) rotate(-45.42)"/><rect class="c" x="807.67" y="717.26" width="6.05" height="3.08" transform="translate(-463.95 672.54) rotate(-45.43)"/><rect class="c" x="826.43" y="698.22" width="6.05" height="3.08" transform="translate(-444.82 679.98) rotate(-45.42)"/><rect class="c" x="851.45" y="672.83" width="6.05" height="3.08" transform="translate(-419.28 690.23) rotate(-45.42)"/><rect class="c" x="713.85" y="812.46" width="6.05" height="3.08" transform="translate(-559.74 633.85) rotate(-45.42)"/><rect class="c" x="845.19" y="679.18" width="6.05" height="3.08" transform="translate(-425.66 687.67) rotate(-45.42)"/><rect class="c" x="838.94" y="685.53" width="6.05" height="3.08" transform="translate(-432.02 685.35) rotate(-45.43)"/><rect class="c" x="832.68" y="691.87" width="6.05" height="3.08" transform="translate(-438.43 682.54) rotate(-45.42)"/><path class="c" d="M796.79,702.08c35,26.9,44.79,55.41,44.89,55.7l5.8-1.91c-.34-1-7-20.52-29-42.81l1.66-1.68L818,709.22l-1.65,1.67a176.73,176.73,0,0,0-16.26-14l3.2-5.1-32.79-10.1,23.35,25.14Z" transform="translate(-193.65 -119.37)"/><path class="c" d="M765.39,792.13l-3.2,5.1L795,807.33l-23.34-25.14-3,4.74c-4.58-3.53-8.74-7.08-12.49-10.6l1.46-1.48-2.19-2.16-1.5,1.52c-23.1-22.46-30.08-42.74-30.16-43L718,733.14C718.39,734.43,728.46,764,765.39,792.13Z" transform="translate(-193.65 -119.37)"/></svg>